PathFileType	4	(X/Y/Z)	s10c0103.trc
DataRate	CameraRate	NumFrames	NumMarkers	Units	OrigDataRate	OrigDataStartFrame	OrigNumFrames
200	200	4	50	mm	200	0	2000
Frame#	Time	racr			lacr			c7			jug			rlel			rdr			llel			ldr			s2			lic			ric			lasi			rasi			rpsi			lpsi			rgt			lgt			rth1			rth2			rth3			rth4			rlfc			rmfc			rsh1			rsh2			rsh3			rsh4			rlmal			rmmal			rcal			rtoe			rmt5			lth1			lth2			lth4			lth3			llfc			lmfc			llmal			lmmal			lcal			lmt5			lsh1			lsh2			lsh3			lsh4			ltoe			SBIKE			LBIKE			RBIKE			
		X1	Y1	Z1	X2	Y2	Z2	X3	Y3	Z3	X4	Y4	Z4	X5	Y5	Z5	X6	Y6	Z6	X7	Y7	Z7	X8	Y8	Z8	X9	Y9	Z9	X10	Y10	Z10	X11	Y11	Z11	X12	Y12	Z12	X13	Y13	Z13	X14	Y14	Z14	X15	Y15	Z15	X16	Y16	Z16	X17	Y17	Z17	X18	Y18	Z18	X19	Y19	Z19	X20	Y20	Z20	X21	Y21	Z21	X22	Y22	Z22	X23	Y23	Z23	X24	Y24	Z24	X25	Y25	Z25	X26	Y26	Z26	X27	Y27	Z27	X28	Y28	Z28	X29	Y29	Z29	X30	Y30	Z30	X31	Y31	Z31	X32	Y32	Z32	X33	Y33	Z33	X34	Y34	Z34	X35	Y35	Z35	X36	Y36	Z36	X37	Y37	Z37	X38	Y38	Z38	X39	Y39	Z39	X40	Y40	Z40	X41	Y41	Z41	X42	Y42	Z42	X43	Y43	Z43	X44	Y44	Z44	X45	Y45	Z45	X46	Y46	Z46	X47	Y47	Z47	X48	Y48	Z48	X49	Y49	Z49	X50	Y50	Z50	
0	0.0000	405.019279	1283.529310	-58.617941	403.441687	1285.048776	-394.004113	400.597179	1326.311860	-225.320021	429.251110	1186.947460	-220.813968	492.820866	1041.632395	15.279953	643.539349	878.537625	-50.315388	476.310851	1030.862230	-487.546443	636.049308	881.493932	-417.322383	-99.614160	1108.885469	-210.406227	68.045261	1076.780925	-361.968056	94.161654	1071.587533	-92.576667	67.609866	993.966271	-343.484486	67.123329	1003.609319	-86.918269	-40.671182	1153.034115	-155.963304	-34.358921	1158.804596	-269.124252	-41.933199	1010.324248	-17.141430	-68.265608	983.894635	-411.201451	46.907445	901.074272	3.802309	133.561203	882.994828	-10.185884	195.428254	824.643592	-21.364539	148.171259	916.703052	-20.156285	296.742670	775.102574	-43.334127	289.683445	765.803709	-161.565193	250.957808	667.005189	-20.171296	263.518063	579.530918	-33.812737	231.960468	499.706751	-40.995243	295.078868	579.699394	-56.750647	219.860219	398.360664	-59.853061	243.713625	417.207454	-138.105420	168.533021	378.140569	-107.462808	409.188740	350.542927	-105.622826	327.399479	326.352344	-42.488463	11.272999	877.844897	-432.518689	93.092070	848.600567	-427.166934	113.634415	877.734397	-417.135132	150.105117	780.023165	-425.391725	235.529006	706.471308	-412.803769	246.091492	697.775136	-289.672196	-37.010005	451.617062	-378.539808	-17.751382	442.532792	-299.759237	-93.799040	460.364447	-330.354213	0.706251	313.674532	-399.455613	135.582708	634.866597	-429.965652	101.132128	555.797451	-411.550652	27.629560	506.187331	-400.713486	125.976550	539.376542	-387.405444	83.153402	279.997765	-345.329416	-217.653982	832.844989	-214.559615	-103.950474	81.695922	-417.398147	-103.438663	81.298266	-18.007921	
1	0.0050	405.100779	1283.590830	-58.542639	403.495408	1285.130232	-394.031407	400.670050	1326.383344	-225.258899	429.242716	1187.034043	-220.802985	492.906992	1041.685034	15.288281	643.550320	878.524815	-50.274839	476.434423	1030.966001	-487.542909	636.092207	881.448609	-417.218456	-99.470965	1108.885316	-210.454190	68.143265	1076.713674	-361.964863	94.295036	1071.604880	-92.572416	67.663627	993.821812	-343.499871	67.129868	1003.549729	-86.943319	-40.569561	1153.012244	-155.931705	-34.230077	1158.762984	-269.196278	-41.841353	1010.411689	-17.167498	-68.201400	983.855185	-411.227287	47.092445	901.249391	3.862692	133.723475	883.248973	-10.168406	195.586459	824.897477	-21.294703	148.261194	916.918014	-20.176750	296.934564	775.337244	-43.299117	289.723408	765.982554	-161.561216	251.069380	667.228814	-20.173891	263.550119	579.799215	-33.778785	231.997453	500.069222	-40.971749	295.137802	579.898601	-56.735468	219.887669	398.582714	-59.794475	243.671883	417.433472	-138.132587	168.538610	378.389343	-107.435632	409.195602	350.847218	-105.517343	327.454884	326.726371	-42.420436	11.259569	877.760152	-432.546614	93.053412	848.458940	-427.175069	113.606080	877.584187	-417.155091	150.023624	779.875756	-425.394721	235.407940	706.247236	-412.807438	246.120219	697.598932	-289.613216	-37.048489	451.334495	-378.550958	-17.538874	442.122906	-299.645691	-93.850773	460.028519	-330.361053	0.702031	313.412312	-399.449902	135.476891	634.645962	-429.963445	101.058360	555.576919	-411.573637	27.555216	505.964196	-400.729671	125.890972	539.135650	-387.382148	83.150428	279.726212	-345.322405	-217.647604	832.837268	-214.550012	-103.900532	81.716200	-417.367536	-103.421099	81.321511	-17.989226	
2	0.0100	405.164020	1283.643347	-58.495979	403.544560	1285.224911	-394.046418	400.727513	1326.453504	-225.230327	429.276838	1187.130391	-220.792258	492.964011	1041.758436	15.300042	643.520863	878.545208	-50.310719	476.549877	1031.080128	-487.507605	636.122643	881.438903	-417.180597	-99.392144	1108.894883	-210.516235	68.265986	1076.614103	-361.914614	94.348751	1071.650280	-92.652053	67.724757	993.690808	-343.526175	67.156902	1003.575689	-86.994666	-40.497001	1153.012529	-155.995280	-34.118183	1158.707939	-269.308258	-41.800604	1010.524619	-17.182114	-68.144211	983.803915	-411.246725	47.188467	901.403579	3.886000	133.830683	883.479978	-10.153370	195.690627	825.146125	-21.240099	148.297515	917.135727	-20.195502	297.080858	775.592588	-43.288476	289.786439	766.166380	-161.545973	251.155781	667.433532	-20.171830	263.598126	580.009293	-33.799412	232.011444	500.316566	-40.952947	295.154268	580.181394	-56.730075	219.879788	398.783038	-59.782725	243.576799	417.607330	-138.065970	168.510088	378.608434	-107.453058	409.173699	351.188660	-105.542672	327.458655	327.040879	-42.393696	11.239345	877.663978	-432.579316	93.022214	848.291009	-427.182383	113.579238	877.426236	-417.152796	149.944273	779.714222	-425.386368	235.283855	706.026153	-412.792436	246.389944	697.414134	-289.455266	-37.106929	450.986249	-378.544569	-17.491464	441.733059	-299.621901	-93.865721	459.638388	-330.311413	0.677401	313.156626	-399.462625	135.390231	634.345338	-429.933136	100.567330	554.226339	-411.781945	27.485942	505.693560	-400.731643	126.865859	539.946659	-388.346165	83.156787	279.515132	-345.300075	-217.647417	832.835820	-214.544699	-103.877679	81.708002	-417.371166	-103.413376	81.321500	-17.973640	
3	0.0150	405.179961	1283.696200	-58.496965	403.588839	1285.296561	-394.048033	400.881091	1326.667386	-225.340190	429.274905	1187.232466	-220.784670	492.991091	1041.795265	15.250668	643.554474	878.529168	-50.287956	476.955608	1031.137158	-486.964865	636.124707	881.443227	-417.221951	-99.361676	1108.890977	-210.592744	68.370600	1076.533039	-361.879217	94.345458	1071.629303	-92.799300	67.779252	993.572349	-343.523098	67.165826	1003.605832	-87.035535	-40.490654	1153.001210	-156.175913	-34.043075	1158.681114	-269.413651	-41.806555	1010.616709	-17.224016	-68.094136	983.754391	-411.273531	47.205713	901.571534	3.881485	133.411556	883.571532	-10.363401	195.778088	825.406412	-21.248888	148.571759	917.066689	-20.331689	296.756848	775.272297	-43.644998	289.856221	766.324040	-161.505698	251.009046	667.676501	-20.099096	263.735758	580.382155	-33.799805	231.968501	500.568990	-40.967804	295.257785	580.596208	-56.571157	219.710002	399.129016	-59.706283	243.220524	417.703937	-138.117301	168.458384	378.769292	-107.453123	409.134389	351.551693	-105.629899	327.431078	327.336158	-42.415673	11.213636	877.533446	-432.591548	92.974118	848.139136	-427.187830	113.505489	877.789491	-418.002178	149.855084	779.496209	-425.365952	235.167580	705.802813	-412.739134	246.365647	697.239467	-289.373886	-37.148667	450.651606	-378.559543	-17.585130	441.453465	-299.609760	-93.932216	459.333725	-330.322771	0.125401	311.604990	-399.491532	135.281824	634.077500	-429.919093	100.458324	553.774217	-411.773881	27.354679	505.532778	-400.545269	125.800844	538.730768	-387.565194	83.192509	279.269075	-345.278936	-217.646929	832.836711	-214.552238	-103.895916	81.723084	-417.376217	-103.423405	81.325266	-18.003219	
